<svg width="20" height="22" viewBox="0 0 20 22" fill="none" xmlns="http://www.w3.org/2000/svg">
<path d="M19.1562 18.7946L18.2029 6.70083C18.1479 5.94833 17.5062 5.375 16.7362 5.375H15.0496V4.92708C15.0496 2.20375 12.7762 0 10.0079 0C7.22122 0 4.96622 2.20375 4.96622 4.92708V5.375H3.15121C2.38121 5.375 1.73955 5.96625 1.68454 6.71875L0.84121 18.8304C0.749543 20.2817 1.92288 21.5 3.40788 21.5H16.5896C18.0929 21.5 19.2662 20.2458 19.1562 18.7946ZM6.79956 4.92708C6.79956 3.20708 8.22956 1.79167 10.0079 1.79167C11.7862 1.79167 13.2162 3.20708 13.2162 4.92708V5.375H6.79956V4.92708ZM5.42455 11.6458C5.42455 11.1442 5.82789 10.75 6.34122 10.75C6.85456 10.75 7.25789 11.1442 7.25789 11.6458C7.25789 12.1475 6.85456 12.5417 6.34122 12.5417C5.82789 12.5417 5.42455 12.1475 5.42455 11.6458ZM14.2062 15.5517C13.8762 17.0208 12.1162 18.0958 10.0079 18.0958C7.89956 18.0958 6.12122 17.0208 5.79122 15.5517C5.69955 15.1575 5.95622 14.7812 6.35955 14.7096C6.76289 14.62 7.14789 14.8708 7.22122 15.265C7.38622 15.9458 8.46789 16.6625 10.0079 16.6625C11.5479 16.6625 12.6296 15.9458 12.7762 15.265C12.8679 14.8708 13.2529 14.6379 13.6379 14.7096C14.0412 14.7812 14.2796 15.1754 14.2062 15.5517ZM13.6746 12.5417C13.1612 12.5417 12.7579 12.1475 12.7579 11.6458C12.7579 11.1442 13.1612 10.75 13.6746 10.75C14.1879 10.75 14.5912 11.1442 14.5912 11.6458C14.5912 12.1475 14.1696 12.5417 13.6746 12.5417Z" fill="white"/>
</svg>
